<svg width="15" height="15" viewBox="0 0 15 15" fill="none" xmlns="http://www.w3.org/2000/svg">
<path d="M14.0217 6.52174H8.47826V0.978261C8.47826 0.423913 8.05435 0 7.5 0C6.94565 0 6.52174 0.423913 6.52174 0.978261V6.52174H0.978261C0.423913 6.52174 0 6.94565 0 7.5C0 8.05435 0.423913 8.47826 0.978261 8.47826H6.52174V14.0217C6.52174 14.5761 6.94565 15 7.5 15C8.05435 15 8.47826 14.5761 8.47826 14.0217V8.47826H14.0217C14.5761 8.47826 15 8.05435 15 7.5C15 6.94565 14.5761 6.52174 14.0217 6.52174Z" fill="#4F4F4F"/>
</svg>
