<svg width="800" height="488" viewBox="0 0 800 488" fill="none" xmlns="http://www.w3.org/2000/svg">
<path d="M704.2 135.7C679 85.1 626.9 50.4 566.6 50.4C556.6 50.4 546.8 51.4 537.3 53.2C503 20.3 456.5 0 405.2 0C353 0 305.7 21 271.3 54.9C259.4 52 247 50.4 234.2 50.4C173.9 50.4 121.8 85.1 96.6 135.6C41.9 143.8 0 190.8 0 247.8C0 306.6 44.6 354.9 101.7 360.8C128.4 406.1 177.7 436.5 234.2 436.5C246.7 436.5 258.9 435 270.5 432.2C305 466.6 352.6 487.8 405.2 487.8C456.9 487.8 503.8 467.2 538.1 433.8C547.3 435.5 556.9 436.5 566.6 436.5C623.1 436.5 672.4 406.1 699.1 360.7C755.9 354.4 800 306.3 800 247.8C800 191.1 758.5 144.3 704.2 135.7Z" fill="#51A9FE"/>
<path d="M358.3 256C358.3 273 371.2 285.5 388.2 285.5C405.2 285.5 418 273 418 256C418 239 405.1 226.4 388.1 226.4C371.1 226.4 358.3 239.1 358.3 256ZM401.3 256C401.3 264.3 395.8 270.3 388.2 270.3C380.6 270.3 375.1 264.3 375.1 256C375.1 247.7 380.6 241.7 388.2 241.7C395.7 241.7 401.3 247.7 401.3 256Z" fill="white"/>
<path d="M347.1 227C342.5 227 336.8 229.3 333.4 234C332.8 230.2 329.9 227.2 325.4 227.2C320.9 227.2 317.2 230.3 317.2 236V276.1C317.2 281.8 320.9 284.9 325.4 284.9C329.9 284.9 333.6 281.8 333.6 276.1V260.6C333.6 248.6 340.2 242.8 347.4 242.8C348.9 242.8 349.7 243 351 243C354.9 243 358.1 239.9 358.1 235.4C358.1 230.9 355.1 228.1 351.6 227.3C350.4 227.1 348.7 227 347.1 227Z" fill="white"/>
<path d="M641.6 251.2C641.6 240.4 633 226.4 614.7 226.4C598.3 226.4 586.9 239.3 586.9 256.4C586.9 274.2 599.7 285.6 616.7 285.6C625.4 285.6 630.8 283.5 635.5 279.9C640 276.4 640.3 272.1 637.9 268.7C635.1 265 630.6 263.7 626.4 267.1C624 269.1 620.7 270.6 616.3 270.6C609 270.6 604.5 266.1 603.6 260.2H632.5C639.3 260.2 641.6 256.3 641.6 251.2ZM604.3 249.2C605.3 244.6 608.9 240.8 615 240.8C620.4 240.8 624.2 244.5 624.6 249.2H604.3Z" fill="white"/>
<path d="M571 284.9C575.5 284.9 579.2 281.8 579.2 276.1V251.4C579.2 235.4 570.7 226.4 555.6 226.4C548.7 226.4 542.6 229.3 538.6 233.2C534.8 228.8 529.3 226.4 522.9 226.4C517.1 226.4 511.9 228.8 508.9 232.3C507.6 229 504.6 227.2 501.3 227.2C496.8 227.2 493.1 230.3 493.1 236V276.1C493.1 281.8 496.8 284.9 501.3 284.9C505.8 284.9 509.5 281.8 509.5 276.1V255.3C509.5 246.7 512.8 241.6 519.3 241.6C525.2 241.6 528 246 528 252.1V276.1C528 281.8 531.7 284.9 536.2 284.9C540.7 284.9 544.4 281.8 544.4 276.1V254.2C544.4 246.4 548 241.6 554.2 241.6C560.1 241.6 562.8 246 562.8 252.1V276.1C562.8 281.8 566.5 284.9 571 284.9Z" fill="white"/>
<path d="M424.4 256C424.4 273 437.3 285.5 454.3 285.5C471.3 285.5 484.2 272.9 484.2 256C484.2 239.1 471.3 226.4 454.3 226.4C437.3 226.4 424.4 239.1 424.4 256ZM467.5 256C467.5 264.3 462 270.3 454.4 270.3C446.8 270.3 441.3 264.3 441.3 256C441.3 247.7 446.8 241.7 454.4 241.7C462 241.7 467.5 247.7 467.5 256Z" fill="white"/>
<path d="M182.3 256C182.3 273 195.2 285.5 212.2 285.5C229.2 285.5 242 273 242 256C242 239 229.1 226.4 212.1 226.4C195.1 226.4 182.3 239.1 182.3 256ZM225.3 256C225.3 264.3 219.8 270.3 212.2 270.3C204.6 270.3 199.1 264.3 199.1 256C199.1 247.7 204.6 241.7 212.2 241.7C219.8 241.7 225.3 247.7 225.3 256Z" fill="white"/>
<path d="M703 251.2C703 240.4 694.4 226.4 676.1 226.4C659.7 226.4 648.3 239.3 648.3 256.4C648.3 274.2 661.1 285.6 678.1 285.6C686.8 285.6 692.2 283.5 696.9 279.9C701.4 276.4 701.7 272.1 699.3 268.7C696.5 265 692 263.7 687.8 267.1C685.4 269.1 682.1 270.6 677.7 270.6C670.4 270.6 665.9 266.1 665 260.2H693.9C700.7 260.2 703 256.3 703 251.2ZM665.8 249.2C666.8 244.6 670.4 240.8 676.5 240.8C681.9 240.8 685.7 244.5 686.1 249.2H665.8Z" fill="white"/>
<path d="M138.5 218.2C146.3 218.2 151.6 221 155.6 224.4C159.9 228.2 164.8 227.4 167.8 223.9C170.8 220.4 170.9 215.6 166.5 211.8C159 205.5 149.8 202.1 139.3 202.1C115.7 202.1 97 218.2 97 244C97 268.7 115.7 285.5 139.2 285.5C151.5 285.5 161.9 280.9 169.2 274.9C171.5 273.1 172.8 270.1 172.8 266.1V250.2C172.8 243.3 168.8 239.2 161.8 239.2H145.9C140.6 239.2 137.6 242.8 137.6 247C137.6 251.2 140.6 254.7 145.9 254.7H155.9V264.5C151.3 267.8 145.5 269.3 139.4 269.3C125.9 269.3 114.6 259.4 114.6 243.5C114.6 227.1 126.8 218.2 138.5 218.2Z" fill="white"/>
<path d="M248.5 256C248.5 273 261.4 285.5 278.4 285.5C295.4 285.5 308.3 272.9 308.3 256C308.3 239.1 295.4 226.4 278.4 226.4C261.4 226.4 248.5 239.1 248.5 256ZM291.5 256C291.5 264.3 286 270.3 278.4 270.3C270.8 270.3 265.3 264.3 265.3 256C265.3 247.7 270.8 241.7 278.4 241.7C286 241.7 291.5 247.7 291.5 256Z" fill="white"/>
</svg>
